<!-- macOS-only app icon: the "Ab" spell-check mark inside the EXACT
     macOS rounded-square geometry — the body path is traced from the
     system Messages.app icon mask (corner curve + ~10% inset), scaled to
     this 256 canvas, so it sizes and rounds like other Dock icons.
     Background matches the prefs window (#1b1b1b); the mark matches the
     prefs sidebar "Ab" (#4a86c0). Linux/tray keep the flat transparent
     `hyprcorrect.svg`. -->
<svg xmlns="http://www.w3.org/2000/svg" width="256" height="256" viewBox="0 0 256 256">
  <!-- Background squircle (traced from macOS): the prefs-window dark. -->
  <path d="M 79.25,25.0 L 71.25,25.25 L 65.5,25.75 L 59.75,26.75 L 56.0,27.75 L 52.0,29.25 L 47.5,31.5 L 45.0,33.0 L 40.75,36.25 L 36.25,40.75 L 36.25,41.0 L 34.25,43.25 L 31.75,47.0 L 29.0,52.5 L 28.75,53.75 L 28.25,54.5 L 28.25,55.0 L 27.75,56.0 L 27.75,56.75 L 27.25,57.75 L 27.0,59.5 L 26.75,59.75 L 26.75,60.75 L 26.5,61.0 L 26.5,62.0 L 26.25,62.25 L 26.25,63.5 L 26.0,63.75 L 26.0,65.25 L 25.75,65.5 L 25.5,70.75 L 25.25,71.0 L 25.25,79.5 L 25.0,79.75 L 25.0,176.0 L 25.25,176.25 L 25.25,184.75 L 25.5,185.0 L 25.5,188.0 L 25.75,188.25 L 25.75,190.25 L 26.0,190.5 L 26.25,193.75 L 26.5,194.0 L 26.5,195.0 L 26.75,195.25 L 27.5,199.0 L 27.75,199.25 L 28.5,202.0 L 29.5,204.0 L 29.5,204.5 L 31.25,208.0 L 33.0,210.5 L 33.25,211.25 L 35.5,214.25 L 37.25,216.0 L 37.25,216.25 L 39.75,218.75 L 43.75,222.0 L 49.5,225.5 L 53.5,227.25 L 57.25,228.5 L 64.5,230.0 L 73.25,230.75 L 182.75,230.75 L 191.5,230.0 L 198.75,228.5 L 202.5,227.25 L 206.5,225.5 L 212.25,222.0 L 216.25,218.75 L 218.75,216.25 L 218.75,216.0 L 220.5,214.25 L 222.75,211.25 L 223.0,210.5 L 224.75,208.0 L 226.5,204.5 L 226.5,204.0 L 227.5,202.0 L 228.25,199.25 L 228.5,199.0 L 229.25,195.25 L 229.5,195.0 L 229.5,194.0 L 229.75,193.75 L 230.0,190.5 L 230.25,190.25 L 230.25,188.25 L 230.5,188.0 L 230.5,185.0 L 230.75,184.75 L 230.75,176.25 L 231.0,176.0 L 231.0,79.75 L 230.75,79.5 L 230.75,71.0 L 230.5,70.75 L 230.25,65.5 L 230.0,65.25 L 230.0,63.75 L 229.75,63.5 L 229.75,62.25 L 229.5,62.0 L 229.5,61.0 L 229.25,60.75 L 229.25,59.75 L 229.0,59.5 L 228.75,57.75 L 228.25,56.75 L 228.25,56.0 L 227.75,55.0 L 227.75,54.5 L 227.25,53.75 L 227.0,52.5 L 224.25,47.0 L 221.75,43.25 L 219.75,41.0 L 219.75,40.75 L 215.25,36.25 L 211.0,33.0 L 208.5,31.5 L 204.0,29.25 L 200.0,27.75 L 196.25,26.75 L 190.5,25.75 L 184.75,25.25 L 176.75,25.0 Z" fill="#1b1b1b"/>
  <!-- Faint edge highlight so it reads against a dark Dock. -->
  <path d="M 79.25,25.0 L 71.25,25.25 L 65.5,25.75 L 59.75,26.75 L 56.0,27.75 L 52.0,29.25 L 47.5,31.5 L 45.0,33.0 L 40.75,36.25 L 36.25,40.75 L 36.25,41.0 L 34.25,43.25 L 31.75,47.0 L 29.0,52.5 L 28.75,53.75 L 28.25,54.5 L 28.25,55.0 L 27.75,56.0 L 27.75,56.75 L 27.25,57.75 L 27.0,59.5 L 26.75,59.75 L 26.75,60.75 L 26.5,61.0 L 26.5,62.0 L 26.25,62.25 L 26.25,63.5 L 26.0,63.75 L 26.0,65.25 L 25.75,65.5 L 25.5,70.75 L 25.25,71.0 L 25.25,79.5 L 25.0,79.75 L 25.0,176.0 L 25.25,176.25 L 25.25,184.75 L 25.5,185.0 L 25.5,188.0 L 25.75,188.25 L 25.75,190.25 L 26.0,190.5 L 26.25,193.75 L 26.5,194.0 L 26.5,195.0 L 26.75,195.25 L 27.5,199.0 L 27.75,199.25 L 28.5,202.0 L 29.5,204.0 L 29.5,204.5 L 31.25,208.0 L 33.0,210.5 L 33.25,211.25 L 35.5,214.25 L 37.25,216.0 L 37.25,216.25 L 39.75,218.75 L 43.75,222.0 L 49.5,225.5 L 53.5,227.25 L 57.25,228.5 L 64.5,230.0 L 73.25,230.75 L 182.75,230.75 L 191.5,230.0 L 198.75,228.5 L 202.5,227.25 L 206.5,225.5 L 212.25,222.0 L 216.25,218.75 L 218.75,216.25 L 218.75,216.0 L 220.5,214.25 L 222.75,211.25 L 223.0,210.5 L 224.75,208.0 L 226.5,204.5 L 226.5,204.0 L 227.5,202.0 L 228.25,199.25 L 228.5,199.0 L 229.25,195.25 L 229.5,195.0 L 229.5,194.0 L 229.75,193.75 L 230.0,190.5 L 230.25,190.25 L 230.25,188.25 L 230.5,188.0 L 230.5,185.0 L 230.75,184.75 L 230.75,176.25 L 231.0,176.0 L 231.0,79.75 L 230.75,79.5 L 230.75,71.0 L 230.5,70.75 L 230.25,65.5 L 230.0,65.25 L 230.0,63.75 L 229.75,63.5 L 229.75,62.25 L 229.5,62.0 L 229.5,61.0 L 229.25,60.75 L 229.25,59.75 L 229.0,59.5 L 228.75,57.75 L 228.25,56.75 L 228.25,56.0 L 227.75,55.0 L 227.75,54.5 L 227.25,53.75 L 227.0,52.5 L 224.25,47.0 L 221.75,43.25 L 219.75,41.0 L 219.75,40.75 L 215.25,36.25 L 211.0,33.0 L 208.5,31.5 L 204.0,29.25 L 200.0,27.75 L 196.25,26.75 L 190.5,25.75 L 184.75,25.25 L 176.75,25.0 Z" fill="none" stroke="#ffffff" stroke-opacity="0.07" stroke-width="1.5"/>
  <!-- The mark: "Ab" + spell-check squiggle, prefs blue (#4a86c0). -->
  <g transform="translate(128 128) scale(0.805) translate(-128 -128)">
    <g transform="translate(33 36) scale(0.745)">
      <text x="120" y="170" text-anchor="middle"
            font-family="Georgia, 'Times New Roman', 'Hoefler Text', serif"
            font-weight="700" font-size="200" fill="#4a86c0">Ab</text>
      <path d="M14 224 q19 -18 38 0 q19 18 38 0 q19 -18 38 0 q19 18 38 0 q19 -18 38 0 q19 18 38 0"
            transform="translate(7 0)" fill="none" stroke="#4a86c0" stroke-width="16"
            stroke-linecap="round" stroke-linejoin="round"/>
    </g>
  </g>
</svg>
